<?xml version="1.0" encoding="iso-8859-1"?>
<!-- Generator: Adobe Illustrator 18.1.1, SVG Export Plug-In . SVG Version: 6.00 Build 0)  -->
<svg version="1.1" id="Capa_1" xmlns="http://www.w3.org/2000/svg" xmlns:xlink="http://www.w3.org/1999/xlink" x="0px" y="0px"
	 viewBox="0 0 32 32" style="enable-background:new 0 0 32 32;" xml:space="preserve">
<g>
	<g id="photo_1_">
		<path style="fill:#010002;" d="M27,0H5C2.791,0,1,1.791,1,4v24c0,2.209,1.791,4,4,4h22c2.209,0,4-1.791,4-4V4
			C31,1.791,29.209,0,27,0z M29,28c0,1.102-0.898,2-2,2H5c-1.103,0-2-0.898-2-2V4c0-1.103,0.897-2,2-2h22c1.102,0,2,0.897,2,2V28z"
			/>
		<path style="fill:#010002;" d="M26,4H6C5.447,4,5,4.447,5,5v18c0,0.553,0.447,1,1,1h20c0.553,0,1-0.447,1-1V5
			C27,4.447,26.553,4,26,4z M26,5v13.869l-3.25-3.53C22.559,15.123,22.287,15,22,15s-0.561,0.123-0.75,0.339l-2.604,2.95
			l-7.896-8.95C10.56,9.123,10.287,9,10,9S9.44,9.123,9.25,9.339L6,13.087V5H26z M6,14.6l4-4.6l8.066,9.143l0.58,0.658L21.408,23H6
			V14.6z M22.74,23l-3.428-3.955L22,16l4,4.379V23H22.74z"/>
		<path style="fill:#010002;" d="M20,13c1.656,0,3-1.343,3-3s-1.344-3-3-3c-1.658,0-3,1.343-3,3S18.342,13,20,13z M20,8
			c1.102,0,2,0.897,2,2s-0.898,2-2,2c-1.104,0-2-0.897-2-2S18.896,8,20,8z"/>
	</g>
</g>
<g>
</g>
<g>
</g>
<g>
</g>
<g>
</g>
<g>
</g>
<g>
</g>
<g>
</g>
<g>
</g>
<g>
</g>
<g>
</g>
<g>
</g>
<g>
</g>
<g>
</g>
<g>
</g>
<g>
</g>
</svg>
